<?xml version="1.0" encoding="utf-8" ?>
<svg xmlns="http://www.w3.org/2000/svg" xmlns:xlink="http://www.w3.org/1999/xlink" width="1080" height="1080">
	<defs>
		<linearGradient id="gradient_0" gradientUnits="userSpaceOnUse" x1="334.47583" y1="341.46469" x2="260.64664" y2="333.82419">
			<stop offset="0" stop-color="#67C925"/>
			<stop offset="1" stop-color="#1FBF52"/>
		</linearGradient>
	</defs>
	<path fill="url(#gradient_0)" transform="scale(1.41732 1.41547)" d="M265.499 272.593L265.485 272.566L278.333 251.816L278.903 251.721L280.098 253.266C285.687 259.904 290.381 267.541 295.495 274.576L304.396 286.754C305.525 288.315 307.298 290.263 308.001 292.014L323.639 313.012C330.23 321.817 336.778 331.054 344.32 339.079C348.008 343.002 352.353 346.262 356.449 349.744C357.943 351.015 359.718 352.279 360.99 353.769L361.191 354.052C365.792 360.357 373.05 365.488 378.83 370.73C369.122 378.334 358.011 383.764 346.58 388.271C341.229 390.38 335.851 392.125 330.618 394.544C329.406 395.517 328.016 396.469 327.025 397.671L307.968 403.628C306.685 404.044 304.363 404.315 303.346 405.106C301.723 406.369 300.173 408.608 298.852 410.185L289.091 421.837L257.631 373.394C256.635 372.472 255.814 370.82 255.06 369.667L249.74 361.561L227.915 329.058L265.499 272.593Z"/>
	<path fill="#02B255" transform="scale(1.41732 1.41547)" d="M265.499 272.593L266.265 272.797L267.072 271.6L267.539 271.593L267.732 272.216C268.032 273.102 267.872 272.771 268.458 273.509C268.462 274.438 268.489 275.28 268.257 276.186C267.877 277.672 268.118 279.313 267.843 280.869C267.398 283.383 267.78 285.902 267.318 288.453C267.126 289.519 267.192 290.661 267.01 291.767C266.682 293.76 266.964 295.677 266.564 297.694L266.502 298.868C266.485 299.282 266.422 299.649 266.353 300.057C266.068 301.739 266.271 303.174 265.828 304.846L265.587 307.374C265.325 309.036 265.325 310.714 265.087 312.39C264.774 314.596 264.861 316.819 264.643 319.047C264.513 320.38 264.099 321.678 263.953 323.008C263.809 324.323 264.038 325.632 263.748 326.933C263.464 328.206 263.653 329.386 263.308 330.677C262.556 333.485 262.779 336.529 262.378 339.424C262.108 341.379 262.31 343.464 261.863 345.326C261.371 347.372 261.521 349.393 261.297 351.452L260.54 358.316C260.117 361.003 259.523 363.515 260.092 366.234C260.211 366.804 260.006 367.349 259.895 367.908C259.756 368.601 259.845 368.103 259.816 368.933C259.79 369.653 259.613 370.066 259.389 370.737C258.978 371.97 259.046 372.452 259.397 373.653L259.865 375.341C259.272 374.754 258.898 374.143 258.46 373.439L257.926 373.163L257.631 373.394C256.635 372.472 255.814 370.82 255.06 369.667L249.74 361.561L227.915 329.058L265.499 272.593Z"/>
	<path fill="#8AD031" transform="scale(1.41732 1.41547)" d="M280.098 253.266C285.687 259.904 290.381 267.541 295.495 274.576L304.396 286.754C305.525 288.315 307.298 290.263 308.001 292.014L323.639 313.012C330.23 321.817 336.778 331.054 344.32 339.079C348.008 343.002 352.353 346.262 356.449 349.744C357.943 351.015 359.718 352.279 360.99 353.769L361.191 354.052C365.792 360.357 373.05 365.488 378.83 370.73C369.122 378.334 358.011 383.764 346.58 388.271C341.229 390.38 335.851 392.125 330.618 394.544C329.109 391.772 326.925 389.162 325.016 386.64L316.612 375.435L291.245 341.567C289.789 339.636 283.967 332.885 283.582 330.967C282.936 327.744 283.338 323.57 283.202 320.236L282.036 292.816L281.096 273.605C280.6 267.122 279.363 259.695 280.098 253.266Z"/>
	<path fill="#02B255" transform="scale(1.41732 1.41547)" d="M308.001 292.014L381.473 179.517L430.556 253.155L444.664 274.347C446.545 277.146 448.472 280.805 450.809 283.21L472.73 257.922C473.653 256.874 477.335 252.052 478.448 251.763L506.621 291.829L522.366 315.289C524.829 318.929 527.069 323.152 530.193 326.229L437.92 454.348L410.092 441.259C401.71 437.422 392.052 434.006 384.753 428.349C382.368 426.5 379.258 423.295 378.966 420.163C377.5 404.44 412.658 390.631 421.835 379.134C423.642 376.87 424.441 375.13 423.962 372.186C423.62 370.086 421.384 368.202 419.745 367.019C415.234 363.766 410.289 362.526 405.034 361C402.105 360.15 398.631 358.945 395.575 359.459C388.416 357.946 381.653 356.651 374.334 356.108L360.99 353.769C359.718 352.279 357.943 351.015 356.449 349.744C352.353 346.262 348.008 343.002 344.32 339.079C336.778 331.054 330.23 321.817 323.639 313.012L308.001 292.014Z"/>
	<path fill="#002562" transform="scale(1.41732 1.41547)" d="M556.695 289.86L557.457 289.677C563.624 296.561 568.326 305.418 573.517 313.074L609.901 367.023L623.791 387.14L673.067 461.236L694.8 493.846C698.3 499.12 702.341 504.418 705.381 509.959L673.914 509.716C671.871 510.158 668.875 509.737 666.707 509.729L645.161 509.554L572.139 509.348L549.196 509.355C546.212 509.356 541.861 509.934 539.111 508.996C535.289 507.693 531.802 504.491 528.348 502.421L507.968 490.846L437.92 454.348L530.193 326.229L547.892 301.598C550.684 297.736 553.426 293.297 556.695 289.86Z"/>
	<path fill="#033A77" transform="scale(1.41732 1.41547)" d="M556.695 289.86L557.457 289.677C563.624 296.561 568.326 305.418 573.517 313.074L609.901 367.023L623.791 387.14L673.067 461.236L694.8 493.846C698.3 499.12 702.341 504.418 705.381 509.959L673.914 509.716C677.619 509.128 681.849 509.625 685.618 509.612C687.005 509.607 691.187 509.93 692.011 509.101C691.393 508.043 690.704 507.504 689.682 506.866L660.877 489.945L579.475 440.132L560.851 429.001C557.307 426.916 552.115 424.634 549.333 421.639C548.393 420.627 547.846 419.829 548 418.383C548.17 416.782 549.183 415.848 550.302 414.797C553.106 412.162 556.66 410.222 559.755 407.938L579.813 392.758L548.436 364.356L556.695 289.86Z"/>
	<path fill="#002562" transform="scale(1.41732 1.41547)" d="M56.36 509.697C57.2844 507.097 59.6276 504.502 61.1621 502.176L74.5563 482.091L128.138 402.08L182.744 320.313L194.212 303.262C196.853 299.269 199.163 294.988 202.575 291.588L204.41 294.572C212.858 305.55 218.925 318.525 227.915 329.058L249.74 361.561L255.06 369.667C255.814 370.82 256.635 372.472 257.631 373.394L289.091 421.837L303.116 443.782L325.324 478.195L333.678 490.741C334.874 492.508 336.808 494.668 337.454 496.7C337.851 497.949 337.647 499.611 337.649 500.92L337.626 510.338C334.632 510.302 331.184 510.605 328.254 510.088L306.103 510.001L265.564 509.999L136.568 510.01L79.6582 510.024L64.5774 510.03C61.9514 510.03 58.9087 510.329 56.36 509.697Z"/>
	<path fill="#033A77" transform="scale(1.41732 1.41547)" d="M204.41 294.572C212.858 305.55 218.925 318.525 227.915 329.058L249.74 361.561L255.06 369.667C255.814 370.82 256.635 372.472 257.631 373.394L289.091 421.837L303.116 443.782L325.324 478.195L333.678 490.741C334.874 492.508 336.808 494.668 337.454 496.7C337.851 497.949 337.647 499.611 337.649 500.92L337.626 510.338C334.632 510.302 331.184 510.605 328.254 510.088L331.212 509.857L331.361 509.474C330.557 508.234 329.568 507.578 328.35 506.801L316.292 499.77L280.189 477.365L197.046 424.392C197.595 423.135 225.797 403.803 229.719 401.024C220.013 388.131 207.498 377.142 198.977 363.354C199.287 353.617 200.779 343.959 201.517 334.247L203.245 309.891C203.544 305.238 202.822 298.902 204.41 294.572Z"/>
	<path fill="#0ABDE2" transform="scale(1.41732 1.41547)" d="M360.99 353.769L374.334 356.108C381.653 356.651 388.416 357.946 395.575 359.459C398.631 358.945 402.105 360.15 405.034 361C410.289 362.526 415.234 363.766 419.745 367.019C421.384 368.202 423.62 370.086 423.962 372.186C424.441 375.13 423.642 376.87 421.835 379.134C412.658 390.631 377.5 404.44 378.966 420.163C379.258 423.295 382.368 426.5 384.753 428.349C392.052 434.006 401.71 437.422 410.092 441.259L437.92 454.348L507.968 490.846L528.348 502.421C531.802 504.491 535.289 507.693 539.111 508.996C541.861 509.934 546.212 509.356 549.196 509.355L572.139 509.348L645.161 509.554L666.707 509.729C668.875 509.737 671.871 510.158 673.914 509.716L705.381 509.959C705.565 511.242 705.549 511.215 704.776 512.23C699.045 519.765 689.245 524.957 681.067 529.436C648.783 547.115 612.417 556.908 576.565 564.25L543.991 570.619L488.749 577.743C458.319 581.1 427.844 582.418 397.26 583.136L382.652 583.447C379.492 583.507 376.196 583.742 373.079 583.113L324.141 581.604L291.897 579.456L269.92 577.866C266.18 577.54 262.103 577.525 258.529 576.316L258.445 576.332C254.867 576.492 251.389 575.849 247.848 575.45L220.162 571.228L194.001 566.642C174.356 562.686 154.903 557.609 135.788 551.612C118.604 546.22 101.995 540.139 85.9725 531.829C78.1257 527.759 70.1948 523.343 63.3854 517.667C61.3442 515.966 56.6172 512.435 56.36 509.697C58.9087 510.329 61.9514 510.03 64.5774 510.03L79.6582 510.024L136.568 510.01L265.564 509.999L306.103 510.001L328.254 510.088C331.184 510.605 334.632 510.302 337.626 510.338L337.649 500.92C337.647 499.611 337.851 497.949 337.454 496.7C336.808 494.668 334.874 492.508 333.678 490.741L325.324 478.195L303.116 443.782L289.091 421.837L298.852 410.185C300.173 408.608 301.723 406.369 303.346 405.106C304.363 404.315 306.685 404.044 307.968 403.628L327.025 397.671C328.016 396.469 329.406 395.517 330.618 394.544C335.851 392.125 341.229 390.38 346.58 388.271C358.011 383.764 369.122 378.334 378.83 370.73C373.05 365.488 365.792 360.357 361.191 354.052L360.99 353.769Z"/>
	<path fill="#7DAC35" transform="scale(1.41732 1.41547)" d="M360.99 353.769L374.334 356.108C378.168 358.279 383.305 359.12 387.563 360.314C391.477 361.412 395.211 362.762 398.947 364.362L400.667 366.539C401.374 367.431 402.17 368.404 402.06 369.618C401.914 371.22 400.508 372.649 399.283 373.595C396.459 375.774 392.722 377.005 389.379 378.173L374.986 382.915L345.62 392.218C339.568 394.059 333.231 396.502 327.025 397.671C328.016 396.469 329.406 395.517 330.618 394.544C335.851 392.125 341.229 390.38 346.58 388.271C358.011 383.764 369.122 378.334 378.83 370.73C373.05 365.488 365.792 360.357 361.191 354.052L360.99 353.769Z"/>
	<path fill="#FEFEFE" transform="scale(1.41732 1.41547)" d="M374.334 356.108C381.653 356.651 388.416 357.946 395.575 359.459C400.501 361.749 412.434 364.329 414.356 370.3C414.791 371.651 414.445 373.376 413.783 374.594C411.306 379.147 404.332 381.809 399.904 383.946L380.434 392.975C370.676 397.504 354.91 403.426 350.366 413.924C349.462 416.014 349.006 418.426 349.602 420.668C352.196 430.426 363.949 437.594 372.253 442.138L401.546 456.966C418.287 465.147 454.09 480.505 459.67 499.795C461.184 505.027 458.802 511.37 456.219 515.923C449.098 528.476 434.825 536.07 423.095 543.621C411.778 550.907 400.1 557.736 389.496 566.062C383.193 571.01 378.249 577.064 373.079 583.113L324.141 581.604L291.897 579.456L269.92 577.866C266.18 577.54 262.103 577.525 258.529 576.316C262.417 574.033 267.437 572.571 271.647 570.901L290.694 562.858L325.899 545.539C335.983 540.186 346.073 534.707 355.64 528.461C367.831 520.504 381.498 509.968 384.563 494.89C386.049 487.58 383.417 481.101 379.04 475.342C372.545 466.798 363.471 460.161 354.38 454.61C344.868 448.802 334.651 444.159 325.794 437.306C322.516 434.77 319.113 431.86 316.895 428.311C315.424 425.957 314.635 423.181 315.357 420.436C319.068 406.325 352.973 396.453 365.676 391.621C376.77 387.401 388.811 383.315 399.163 377.462C401.982 375.868 405.902 373.829 406.813 370.51C406.731 369.929 406.605 369.481 406.279 368.984C404.604 366.43 401.83 365.062 398.947 364.362C395.211 362.762 391.477 361.412 387.563 360.314C383.305 359.12 378.168 358.279 374.334 356.108Z"/>
	<path fill="#0ABDE2" transform="scale(1.41732 1.41547)" d="M395.575 359.459C398.631 358.945 402.105 360.15 405.034 361C410.289 362.526 415.234 363.766 419.745 367.019C421.384 368.202 423.62 370.086 423.962 372.186C424.441 375.13 423.642 376.87 421.835 379.134C412.658 390.631 377.5 404.44 378.966 420.163C379.258 423.295 382.368 426.5 384.753 428.349C392.052 434.006 401.71 437.422 410.092 441.259L437.92 454.348L507.968 490.846L528.348 502.421C531.802 504.491 535.289 507.693 539.111 508.996C541.861 509.934 546.212 509.356 549.196 509.355L572.139 509.348L645.161 509.554L666.707 509.729C668.875 509.737 671.871 510.158 673.914 509.716L705.381 509.959C705.565 511.242 705.549 511.215 704.776 512.23C699.045 519.765 689.245 524.957 681.067 529.436C648.783 547.115 612.417 556.908 576.565 564.25L543.991 570.619L488.749 577.743C458.319 581.1 427.844 582.418 397.26 583.136L382.652 583.447C379.492 583.507 376.196 583.742 373.079 583.113C378.249 577.064 383.193 571.01 389.496 566.062C400.1 557.736 411.778 550.907 423.095 543.621C434.825 536.07 449.098 528.476 456.219 515.923C458.802 511.37 461.184 505.027 459.67 499.795C454.09 480.505 418.287 465.147 401.546 456.966L372.253 442.138C363.949 437.594 352.196 430.426 349.602 420.668C349.006 418.426 349.462 416.014 350.366 413.924C354.91 403.426 370.676 397.504 380.434 392.975L399.904 383.946C404.332 381.809 411.306 379.147 413.783 374.594C414.445 373.376 414.791 371.651 414.356 370.3C412.434 364.329 400.501 361.749 395.575 359.459Z"/>
</svg>
